<svg width="16" height="16" viewBox="0 0 16 16" fill="none" xmlns="http://www.w3.org/2000/svg">
<path d="M15.5622 0.0273603C15.47 0.0937401 14.7177 0.971428 14.7177 1.00831C14.7177 1.07837 14.8173 1.0415 14.95 0.923487C15.1676 0.728035 15.7134 0.115867 15.7134 0.0679257C15.7134 0.00154596 15.6286 -0.0242684 15.5622 0.0273603Z" fill="black"/>
<path d="M13.9986 1.10791C13.497 1.14848 12.6452 1.33287 12.0256 1.532C11.6974 1.63895 11.2401 1.84915 11.2586 1.88603C11.2696 1.91922 12.3206 2.87804 13.2205 3.67828C13.4454 3.87742 13.7847 4.18719 13.9691 4.36789C14.1571 4.5486 14.3268 4.69611 14.3489 4.69611C14.3821 4.69611 14.5075 4.31627 14.6255 3.85161C14.7509 3.35376 14.8283 2.66415 14.8283 2.01879C14.8283 1.67214 14.8099 1.33655 14.7914 1.27755C14.7251 1.09316 14.5628 1.05997 13.9986 1.10791ZM13.6482 1.37343C13.309 1.46563 12.269 1.8344 11.974 1.96716C11.6827 2.09623 11.6568 2.09992 11.6568 2.01141C11.6568 1.96716 11.7527 1.91184 12.0182 1.80859C12.671 1.55413 13.5228 1.30705 13.7404 1.30705C13.8806 1.31074 13.8732 1.31443 13.6482 1.37343Z" fill="url(#paint0_linear_21_110)"/>
<path d="M10.6759 2.09252C10.2481 2.29166 9.44049 2.79319 9.00165 3.12878C8.66238 3.39061 7.96908 4.06547 7.65193 4.44162C7.2979 4.86203 6.67098 5.7434 6.08094 6.65059C5.92974 6.88292 5.66422 7.28858 5.4909 7.5541C4.84185 8.54242 4.55052 8.99601 4.50627 9.07345C4.46939 9.14721 4.50258 9.19515 4.92298 9.62662C5.17375 9.88476 5.43189 10.1282 5.4909 10.165L5.60522 10.2277L6.02194 9.7225C6.49028 9.1509 7.14671 8.39859 7.34584 8.19577C7.71093 7.83068 8.19403 7.56516 8.6255 7.49509C8.92421 7.44715 9.06065 7.48772 9.14179 7.65735C9.20448 7.79011 9.12703 8.10726 8.93896 8.47235C8.82464 8.68993 8.68081 8.85588 8.06127 9.47542C7.65562 9.88107 7.12458 10.3974 6.88119 10.6223L6.43865 11.0317L6.56773 11.1681C6.74474 11.3599 7.55605 12.0347 7.60399 12.0347C7.62243 12.0347 7.77731 11.9204 7.94326 11.784C8.10921 11.6475 8.38579 11.4262 8.55912 11.2935C9.30773 10.7182 10.1596 10.0396 10.5837 9.67825C10.8345 9.46436 11.1516 9.19515 11.2844 9.08821C11.6863 8.75631 12.3833 8.05563 12.671 7.69792C13.1946 7.05256 13.8732 5.92042 14.1645 5.21237L14.2788 4.93947L13.9728 4.6297C13.6814 4.33468 13.2389 3.9364 12.671 3.46068C12.5272 3.33898 12.2063 3.05134 11.9629 2.82269C11.4983 2.38754 11.0152 2.00401 10.9193 2.00401C10.8898 2.00401 10.7792 2.04458 10.6759 2.09252ZM11.0852 2.29903C11.0705 2.32116 10.9156 2.40967 10.7423 2.49817C9.90515 2.92226 9.24504 3.41642 8.42267 4.2388C7.82894 4.82884 7.74044 4.88415 8.21247 4.36418C8.36736 4.19086 8.54806 3.98803 8.61075 3.9069C8.96109 3.47174 10.7349 2.26584 11.0225 2.26215C11.0705 2.26215 11.0963 2.27691 11.0852 2.29903ZM10.7755 3.97328C11.1258 4.05072 11.3803 4.19086 11.6605 4.47113C11.9334 4.74771 12.0367 4.9616 12.1067 5.42257C12.2432 6.29657 11.6753 7.11894 10.8308 7.27383C10.226 7.38446 9.77608 7.26645 9.30036 6.87186C9.0164 6.63584 8.8357 6.28919 8.77301 5.85772C8.72507 5.49632 8.76563 5.26399 8.94265 4.89522C9.14916 4.46744 9.58432 4.11341 10.0674 3.98803C10.3661 3.91059 10.4657 3.91059 10.7755 3.97328ZM7.34216 5.46682C7.32372 5.50739 7.28684 5.55164 7.26471 5.56639C7.24259 5.57745 7.25365 5.54795 7.28684 5.49264C7.3606 5.382 7.39747 5.36356 7.34216 5.46682ZM7.15777 5.72865C7.11352 5.78766 7.06926 5.83929 7.06189 5.83929C7.05082 5.83929 7.07664 5.78766 7.12089 5.72865C7.16514 5.66596 7.2094 5.61802 7.21677 5.61802C7.22784 5.61802 7.20202 5.66596 7.15777 5.72865ZM6.30958 6.94561C6.28746 6.98618 6.26164 7.01937 6.25058 7.01937C6.2432 7.01937 6.25058 6.98618 6.2727 6.94561C6.29483 6.90505 6.32065 6.87186 6.33171 6.87186C6.33908 6.87186 6.33171 6.90505 6.30958 6.94561ZM5.71954 7.90075C5.7011 7.94131 5.66422 7.98556 5.6421 8.00032C5.61997 8.01138 5.63103 7.98188 5.66422 7.92656C5.73798 7.81593 5.77486 7.79749 5.71954 7.90075Z" fill="url(#paint1_linear_21_110)"/>
<circle cx="10.4631" cy="5.66993" r="1.29994" fill="url(#paint2_linear_21_110)"/>
<path d="M10.0232 4.19457C9.82402 4.24989 9.49212 4.46378 9.29667 4.6666C9.22292 4.74036 9.11597 4.89525 9.05697 5.01694C8.95371 5.21239 8.94633 5.26033 8.94633 5.61805C8.94633 5.97207 8.9574 6.0237 9.06066 6.24497C9.20448 6.54736 9.32249 6.68381 9.61013 6.89033C10.0047 7.17428 10.4436 7.23698 10.934 7.0784C11.4245 6.92352 11.69 6.66537 11.8597 6.18596C12.0588 5.61805 11.926 4.96531 11.5315 4.57072C11.1774 4.2167 10.5394 4.05812 10.0232 4.19457ZM11.0373 4.59654C11.2438 4.68873 11.4872 4.95425 11.6384 5.24927C11.7343 5.43735 11.7527 5.82456 11.6753 6.06795C11.4872 6.67644 10.8271 7.0489 10.226 6.89401C9.95309 6.82395 9.77608 6.72069 9.54375 6.48467C9.30036 6.2339 9.22292 6.05689 9.22292 5.73606C9.22292 5.1792 9.48844 4.7883 10.0232 4.56335C10.3071 4.44165 10.7349 4.4564 11.0373 4.59654Z" fill="url(#paint3_linear_21_110)"/>
<path d="M6.19895 5.64016C5.05943 5.7176 4.76441 5.74342 4.44726 5.80611C3.45894 6.00156 2.8689 6.31871 2.14241 7.05257C1.77363 7.42504 1.17253 8.24003 0.884882 8.76001C0.829565 8.85589 0.704181 9.04765 0.604612 9.1841C0.37597 9.50125 0.291152 9.6377 0.316966 9.6377C0.328029 9.6377 0.431287 9.56763 0.545607 9.4865C0.925447 9.20254 1.65931 8.76001 1.93221 8.64937C2.3268 8.48343 2.80252 8.35435 3.11229 8.32485C3.44788 8.29535 4.0748 8.36542 4.36982 8.4613C4.48783 8.50186 4.59846 8.52399 4.61321 8.50555C4.62796 8.4908 4.92667 8.03352 5.2807 7.49142C6.53085 5.57747 6.50872 5.61066 6.41284 5.62541C6.38703 5.6291 6.29114 5.63647 6.19895 5.64016ZM2.69557 7.24434C2.53331 7.38816 2.27148 7.5873 2.34524 7.50986C2.43005 7.41766 2.82096 7.09314 2.8394 7.09314C2.85046 7.09683 2.78777 7.16321 2.69557 7.24434Z" fill="url(#paint4_linear_21_110)"/>
<path d="M8.52224 7.73483C8.21984 7.80121 7.79944 8.04091 7.51548 8.31012C7.37535 8.43919 7.06189 8.77847 6.81849 9.06611C6.5751 9.35007 6.23951 9.74097 6.07356 9.93274C5.72691 10.331 5.06312 11.1497 4.87504 11.4042C4.80497 11.4963 4.67221 11.666 4.57633 11.7766C4.48414 11.8873 4.25918 12.1933 4.07848 12.4589C3.90147 12.7207 3.6507 13.071 3.52532 13.2333C3.27824 13.5541 3.19342 13.6906 3.22661 13.7201C3.27455 13.768 3.86459 13.2702 4.48414 12.6617C5.38027 11.784 6.08832 11.1054 6.64148 10.5965C8.15715 9.20994 8.62181 8.71209 8.83939 8.25849C8.98321 7.95978 9.00165 7.77908 8.8947 7.72008C8.80989 7.67583 8.78407 7.67583 8.52224 7.73483Z" fill="url(#paint5_linear_21_110)"/>
<path d="M4.14487 9.5455C4.06742 9.61188 3.96785 9.73357 3.91991 9.8147L3.83878 9.95852L3.96785 10.1208C4.0748 10.2609 4.54683 10.6961 4.83817 10.9247L4.93405 10.9985L5.0078 10.9173C5.04837 10.8731 5.15163 10.7366 5.24013 10.6186C5.36183 10.4527 5.39133 10.3863 5.36183 10.3421C5.34339 10.3089 5.09262 10.0876 4.80498 9.85158L4.28869 9.42011L4.14487 9.5455ZM4.48045 9.80364C4.4657 9.83314 4.45095 9.85896 4.44357 9.85896C4.4362 9.85896 4.42882 9.83314 4.42882 9.80364C4.42882 9.77414 4.44357 9.74832 4.4657 9.74832C4.48414 9.74832 4.49152 9.77414 4.48045 9.80364Z" fill="url(#paint6_linear_21_110)"/>
<path d="M10.7533 9.8221C9.41099 10.9137 9.03115 11.2124 8.64025 11.4963C8.39317 11.677 8.19034 11.8393 8.19034 11.8541C8.19034 11.8725 8.23828 11.961 8.29729 12.0569C8.5038 12.3814 8.57756 13.001 8.47061 13.5099C8.34892 14.0888 7.94695 14.8707 7.39747 15.6008C7.2389 15.811 7.1172 15.9917 7.12827 15.9991C7.15039 16.0212 7.58924 15.7483 8.03177 15.4349C8.62919 15.0108 9.47737 14.3175 9.77977 14.004C10.3661 13.3955 10.7017 12.6654 10.8824 11.6107C10.9562 11.1644 11.0447 10.0507 11.0225 9.78154L11.0115 9.61559L10.7533 9.8221Z" fill="url(#paint7_linear_21_110)"/>
<path d="M3.49213 10.4932L3.28193 10.6887L3.55113 10.9653C3.69864 11.1202 3.93835 11.3562 4.08217 11.4889L4.34769 11.736L4.5247 11.5074C4.62059 11.382 4.71647 11.2603 4.73122 11.2345C4.77916 11.1718 4.55052 10.9321 4.14855 10.6297C3.95679 10.4896 3.79453 10.3568 3.78346 10.3384C3.74659 10.2757 3.70971 10.2941 3.49213 10.4932ZM3.91253 10.5596C3.91253 10.6297 3.82403 10.6629 3.72077 10.626C3.6212 10.5891 3.61751 10.5854 3.67283 10.5191C3.72446 10.4674 3.75027 10.4601 3.82403 10.4932C3.87197 10.5154 3.91253 10.5449 3.91253 10.5596Z" fill="black"/>
<path d="M3.49213 10.4932L3.28193 10.6887L3.55113 10.9653C3.69864 11.1202 3.93835 11.3562 4.08217 11.4889L4.34769 11.736L4.5247 11.5074C4.62059 11.382 4.71647 11.2603 4.73122 11.2345C4.77916 11.1718 4.55052 10.9321 4.14855 10.6297C3.95679 10.4896 3.79453 10.3568 3.78346 10.3384C3.74659 10.2757 3.70971 10.2941 3.49213 10.4932ZM3.91253 10.5596C3.91253 10.6297 3.82403 10.6629 3.72077 10.626C3.6212 10.5891 3.61751 10.5854 3.67283 10.5191C3.72446 10.4674 3.75027 10.4601 3.82403 10.4932C3.87197 10.5154 3.91253 10.5449 3.91253 10.5596Z" fill="url(#paint8_linear_21_110)"/>
<path d="M3.13811 11.0095C3.13811 11.0796 3.8941 11.8134 3.96785 11.8134C4.00473 11.8134 4.05636 11.8429 4.08217 11.8761C4.14118 11.961 4.18912 11.9167 4.13012 11.8245C4.10799 11.7876 3.97892 11.6659 3.84616 11.5553C3.70971 11.4447 3.50688 11.264 3.39256 11.157C3.17867 10.9579 3.13811 10.9358 3.13811 11.0095Z" fill="url(#paint9_linear_21_110)"/>
<path d="M5.97768 11.4631L5.70479 11.7397L5.84861 11.8909C6.05881 12.1085 6.7558 12.6617 6.85168 12.6838C6.98075 12.717 7.02501 12.6875 7.21677 12.4367L7.39378 12.2081L7.2094 12.0569C7.10983 11.9721 6.85537 11.7434 6.63779 11.548L6.24689 11.1903L5.97768 11.4631Z" fill="url(#paint10_linear_21_110)"/>
<path d="M5.26226 12.1306C5.12581 12.2597 5.01887 12.3777 5.02624 12.3925C5.02993 12.4109 5.26963 12.6432 5.55359 12.9161L6.06619 13.4066L6.1547 13.3034C6.26533 13.1669 6.45709 12.8387 6.45709 12.7834C6.45709 12.7613 6.24689 12.5511 5.98506 12.3187L5.51672 11.8983L5.26226 12.1306Z" fill="url(#paint11_linear_21_110)"/>
<path d="M4.7976 12.6432C4.7976 12.6764 4.89348 12.787 5.0078 12.894C5.12212 13.0009 5.31757 13.178 5.43927 13.2923C5.56465 13.4029 5.70848 13.5246 5.76748 13.5578C5.92237 13.6574 5.89287 13.5578 5.70848 13.3623C5.50565 13.1484 4.87136 12.5879 4.83079 12.5879C4.81235 12.5879 4.7976 12.6137 4.7976 12.6432Z" fill="url(#paint12_linear_21_110)"/>
<defs>
<linearGradient id="paint0_linear_21_110" x1="15.1621" y1="3.20717" x2="13.0432" y2="1.08819" gradientUnits="userSpaceOnUse">
<stop stop-color="#040E1B"/>
<stop offset="1" stop-color="#07576E"/>
</linearGradient>
<linearGradient id="paint1_linear_21_110" x1="12.2194" y1="8.39427" x2="7.80122" y2="4.1019" gradientUnits="userSpaceOnUse">
<stop stop-color="#040E1B"/>
<stop offset="1" stop-color="#07576E"/>
</linearGradient>
<linearGradient id="paint2_linear_21_110" x1="11.4588" y1="6.70712" x2="9.43971" y2="4.68806" gradientUnits="userSpaceOnUse">
<stop stop-color="#0A98E8"/>
<stop offset="1" stop-color="#23FEF6"/>
</linearGradient>
<linearGradient id="paint3_linear_21_110" x1="11.5832" y1="6.81778" x2="9.27377" y2="4.50831" gradientUnits="userSpaceOnUse">
<stop stop-color="#07111B"/>
<stop offset="1" stop-color="#032134"/>
</linearGradient>
<linearGradient id="paint4_linear_21_110" x1="5.37396" y1="7.63368" x2="3.26742" y2="5.18027" gradientUnits="userSpaceOnUse">
<stop offset="0.555" stop-color="#001C2D"/>
<stop offset="0.825" stop-color="#20636D"/>
</linearGradient>
<linearGradient id="paint5_linear_21_110" x1="7.42066" y1="11.4644" x2="4.86694" y2="9.10241" gradientUnits="userSpaceOnUse">
<stop offset="0.399624" stop-color="#030F1B"/>
<stop offset="0.584616" stop-color="#326B88"/>
</linearGradient>
<linearGradient id="paint6_linear_21_110" x1="5.51582" y1="10.3471" x2="4.58898" y2="9.43704" gradientUnits="userSpaceOnUse">
<stop stop-color="#040E1B"/>
<stop offset="1" stop-color="#07576E"/>
</linearGradient>
<linearGradient id="paint7_linear_21_110" x1="10.3411" y1="12.8138" x2="7.74984" y2="11.6087" gradientUnits="userSpaceOnUse">
<stop stop-color="#20636D"/>
<stop offset="0.445" stop-color="#001C2D"/>
</linearGradient>
<linearGradient id="paint8_linear_21_110" x1="4.87362" y1="11.146" x2="4.0343" y2="10.2825" gradientUnits="userSpaceOnUse">
<stop stop-color="#040E1B"/>
<stop offset="1" stop-color="#07576E"/>
</linearGradient>
<linearGradient id="paint9_linear_21_110" x1="4.25232" y1="11.5291" x2="3.69576" y2="10.9262" gradientUnits="userSpaceOnUse">
<stop stop-color="#040E1B"/>
<stop offset="1" stop-color="#07576E"/>
</linearGradient>
<linearGradient id="paint10_linear_21_110" x1="7.55171" y1="12.074" x2="6.67495" y2="11.0795" gradientUnits="userSpaceOnUse">
<stop stop-color="#04222B"/>
<stop offset="1" stop-color="#020C19"/>
</linearGradient>
<linearGradient id="paint11_linear_21_110" x1="6.59092" y1="12.7842" x2="5.70585" y2="11.9355" gradientUnits="userSpaceOnUse">
<stop stop-color="#001226"/>
<stop offset="1" stop-color="#01161F"/>
</linearGradient>
<linearGradient id="paint12_linear_21_110" x1="5.96739" y1="13.1805" x2="5.37619" y2="12.5471" gradientUnits="userSpaceOnUse">
<stop stop-color="#040E1B"/>
<stop offset="1" stop-color="#07576E"/>
</linearGradient>
</defs>
</svg>
