<svg width="16" height="16" viewBox="0 0 16 16" fill="none" xmlns="http://www.w3.org/2000/svg">
<rect width="16" height="16" fill="black"/>
<path d="M15.5621 0.0273603C15.47 0.0937401 14.7177 0.971428 14.7177 1.00831C14.7177 1.07837 14.8172 1.0415 14.95 0.923487C15.1676 0.728035 15.7133 0.115867 15.7133 0.0679257C15.7133 0.00154596 15.6285 -0.0242684 15.5621 0.0273603Z" fill="black"/>
<path d="M13.9985 1.10785C13.497 1.14842 12.6451 1.3328 12.0256 1.53194C11.6974 1.63889 11.2401 1.84909 11.2585 1.88597C11.2696 1.91916 12.3206 2.87798 13.2204 3.67822C13.4454 3.87736 13.7847 4.18713 13.969 4.36783C14.1571 4.54853 14.3268 4.69604 14.3489 4.69604C14.3821 4.69604 14.5075 4.31621 14.6255 3.85155C14.7508 3.3537 14.8283 2.66409 14.8283 2.01873C14.8283 1.67208 14.8099 1.33649 14.7914 1.27749C14.725 1.0931 14.5628 1.05991 13.9985 1.10785ZM13.6482 1.37337C13.3089 1.46556 12.269 1.83434 11.974 1.9671C11.6826 2.09617 11.6568 2.09986 11.6568 2.01135C11.6568 1.9671 11.7527 1.91178 12.0182 1.80853C12.6709 1.55407 13.5228 1.30699 13.7404 1.30699C13.8805 1.31068 13.8732 1.31437 13.6482 1.37337Z" fill="url(#paint0_linear_21_125)"/>
<path d="M10.6759 2.09258C10.2481 2.29172 9.44049 2.79325 9.00164 3.12884C8.66237 3.39067 7.96907 4.06553 7.65192 4.44168C7.2979 4.86209 6.67098 5.74346 6.08094 6.65065C5.92974 6.88298 5.66422 7.28864 5.49089 7.55416C4.84185 8.54248 4.55051 8.99607 4.50626 9.07352C4.46938 9.14727 4.50257 9.19521 4.92298 9.62668C5.17375 9.88482 5.43189 10.1282 5.49089 10.1651L5.60521 10.2278L6.02193 9.72256C6.49028 9.15096 7.1467 8.39865 7.34584 8.19583C7.71093 7.83074 8.19402 7.56522 8.62549 7.49515C8.9242 7.44721 9.06065 7.48778 9.14178 7.65741C9.20447 7.79017 9.12703 8.10732 8.93895 8.47241C8.82463 8.68999 8.68081 8.85594 8.06126 9.47548C7.65561 9.88114 7.12457 10.3974 6.88118 10.6224L6.43865 11.0317L6.56772 11.1682C6.74473 11.3599 7.55604 12.0348 7.60398 12.0348C7.62242 12.0348 7.77731 11.9205 7.94326 11.784C8.10921 11.6476 8.38579 11.4263 8.55911 11.2935C9.30773 10.7183 10.1596 10.0397 10.5837 9.67831C10.8345 9.46442 11.1516 9.19521 11.2844 9.08827C11.6863 8.75637 12.3833 8.05569 12.671 7.69798C13.1946 7.05262 13.8732 5.92048 14.1645 5.21243L14.2788 4.93953L13.9728 4.62976C13.6814 4.33474 13.2389 3.93646 12.671 3.46074C12.5271 3.33904 12.2063 3.0514 11.9629 2.82276C11.4983 2.3876 11.0152 2.00407 10.9193 2.00407C10.8898 2.00407 10.7791 2.04464 10.6759 2.09258ZM11.0852 2.29909C11.0705 2.32122 10.9156 2.40973 10.7423 2.49823C9.90515 2.92233 9.24504 3.41649 8.42267 4.23886C7.82894 4.8289 7.74043 4.88422 8.21246 4.36424C8.36735 4.19092 8.54805 3.98809 8.61074 3.90696C8.96108 3.4718 10.7349 2.2659 11.0225 2.26222C11.0705 2.26222 11.0963 2.27697 11.0852 2.29909ZM10.7755 3.97334C11.1258 4.05078 11.3803 4.19092 11.6605 4.47119C11.9334 4.74777 12.0367 4.96166 12.1067 5.42263C12.2432 6.29663 11.6753 7.119 10.8308 7.27389C10.226 7.38452 9.77608 7.26651 9.30035 6.87192C9.0164 6.6359 8.8357 6.28925 8.773 5.85779C8.72506 5.49638 8.76563 5.26406 8.94264 4.89528C9.14916 4.4675 9.58431 4.11347 10.0674 3.98809C10.3661 3.91065 10.4657 3.91065 10.7755 3.97334ZM7.34215 5.46688C7.32371 5.50745 7.28683 5.5517 7.26471 5.56645C7.24258 5.57752 7.25364 5.54801 7.28683 5.4927C7.36059 5.38206 7.39747 5.36363 7.34215 5.46688ZM7.15776 5.72871C7.11351 5.78772 7.06926 5.83935 7.06188 5.83935C7.05082 5.83935 7.07663 5.78772 7.12088 5.72871C7.16514 5.66602 7.20939 5.61808 7.21677 5.61808C7.22783 5.61808 7.20202 5.66602 7.15776 5.72871ZM6.30958 6.94568C6.28745 6.98624 6.26164 7.01943 6.25057 7.01943C6.2432 7.01943 6.25057 6.98624 6.2727 6.94568C6.29483 6.90511 6.32064 6.87192 6.3317 6.87192C6.33908 6.87192 6.3317 6.90511 6.30958 6.94568ZM5.71953 7.90081C5.7011 7.94137 5.66422 7.98563 5.64209 8.00038C5.61996 8.01144 5.63103 7.98194 5.66422 7.92662C5.73797 7.81599 5.77485 7.79755 5.71953 7.90081Z" fill="url(#paint1_linear_21_125)"/>
<circle cx="10.4631" cy="5.66993" r="1.29994" fill="url(#paint2_linear_21_125)"/>
<path d="M10.0232 4.19451C9.82404 4.24983 9.49214 4.46372 9.29669 4.66654C9.22293 4.7403 9.11599 4.89518 9.05698 5.01688C8.95373 5.21233 8.94635 5.26027 8.94635 5.61799C8.94635 5.97201 8.95741 6.02364 9.06067 6.24491C9.20449 6.5473 9.3225 6.68375 9.61015 6.89026C10.0047 7.17422 10.4436 7.23691 10.9341 7.07834C11.4245 6.92345 11.69 6.66531 11.8597 6.1859C12.0588 5.61799 11.9261 4.96525 11.5315 4.57066C11.1774 4.21664 10.5395 4.05806 10.0232 4.19451ZM11.0373 4.59648C11.2438 4.68867 11.4872 4.95419 11.6384 5.24921C11.7343 5.43729 11.7527 5.8245 11.6753 6.06789C11.4872 6.67637 10.8271 7.04884 10.226 6.89395C9.95311 6.82389 9.7761 6.72063 9.54377 6.48461C9.30038 6.23384 9.22293 6.05683 9.22293 5.73599C9.22293 5.17914 9.48845 4.78824 10.0232 4.56329C10.3071 4.44159 10.7349 4.45634 11.0373 4.59648Z" fill="url(#paint3_linear_21_125)"/>
<path d="M6.19895 5.64016C5.05943 5.7176 4.76441 5.74342 4.44726 5.80611C3.45894 6.00156 2.8689 6.31871 2.14241 7.05257C1.77363 7.42504 1.17253 8.24003 0.884882 8.76001C0.829565 8.85589 0.704181 9.04765 0.604612 9.1841C0.37597 9.50125 0.291152 9.6377 0.316966 9.6377C0.328029 9.6377 0.431287 9.56763 0.545607 9.4865C0.925447 9.20254 1.65931 8.76001 1.93221 8.64937C2.3268 8.48343 2.80252 8.35435 3.11229 8.32485C3.44788 8.29535 4.0748 8.36542 4.36982 8.4613C4.48783 8.50186 4.59846 8.52399 4.61321 8.50555C4.62796 8.4908 4.92667 8.03352 5.2807 7.49142C6.53085 5.57747 6.50872 5.61066 6.41284 5.62541C6.38703 5.6291 6.29114 5.63647 6.19895 5.64016ZM2.69557 7.24434C2.53331 7.38816 2.27148 7.5873 2.34524 7.50986C2.43005 7.41766 2.82096 7.09314 2.8394 7.09314C2.85046 7.09683 2.78777 7.16321 2.69557 7.24434Z" fill="url(#paint4_linear_21_125)"/>
<path d="M8.52224 7.73483C8.21984 7.80121 7.79944 8.04091 7.51548 8.31012C7.37534 8.43919 7.06188 8.77847 6.81849 9.06611C6.5751 9.35007 6.23951 9.74097 6.07356 9.93274C5.72691 10.331 5.06312 11.1497 4.87504 11.4042C4.80497 11.4963 4.67221 11.666 4.57633 11.7766C4.48414 11.8873 4.25918 12.1933 4.07848 12.4589C3.90147 12.7207 3.6507 13.071 3.52532 13.2333C3.27824 13.5541 3.19342 13.6906 3.22661 13.7201C3.27455 13.768 3.86459 13.2702 4.48414 12.6617C5.38026 11.784 6.08831 11.1054 6.64148 10.5965C8.15715 9.20994 8.62181 8.71209 8.83939 8.25849C8.98321 7.95978 9.00165 7.77908 8.8947 7.72008C8.80988 7.67583 8.78407 7.67583 8.52224 7.73483Z" fill="url(#paint5_linear_21_125)"/>
<path d="M4.14489 9.54556C4.06745 9.61194 3.96788 9.73363 3.91994 9.81476L3.83881 9.95859L3.96788 10.1208C4.07482 10.261 4.54686 10.6961 4.83819 10.9248L4.93407 10.9985L5.00783 10.9174C5.04839 10.8732 5.15165 10.7367 5.24016 10.6187C5.36185 10.4527 5.39135 10.3864 5.36185 10.3421C5.34341 10.3089 5.09265 10.0877 4.805 9.85164L4.28871 9.42017L4.14489 9.54556ZM4.48048 9.8037C4.46573 9.8332 4.45097 9.85902 4.4436 9.85902C4.43622 9.85902 4.42885 9.8332 4.42885 9.8037C4.42885 9.7742 4.4436 9.74838 4.46573 9.74838C4.48416 9.74838 4.49154 9.7742 4.48048 9.8037Z" fill="url(#paint6_linear_21_125)"/>
<path d="M10.7533 9.8221C9.41099 10.9137 9.03115 11.2124 8.64025 11.4963C8.39316 11.677 8.19034 11.8393 8.19034 11.8541C8.19034 11.8725 8.23828 11.961 8.29728 12.0569C8.5038 12.3814 8.57755 13.001 8.47061 13.5099C8.34891 14.0888 7.94695 14.8707 7.39747 15.6008C7.23889 15.811 7.1172 15.9917 7.12826 15.9991C7.15039 16.0212 7.58923 15.7483 8.03176 15.4349C8.62918 15.0108 9.47737 14.3175 9.77976 14.004C10.3661 13.3955 10.7017 12.6654 10.8824 11.6107C10.9562 11.1644 11.0447 10.0507 11.0225 9.78154L11.0115 9.61559L10.7533 9.8221Z" fill="url(#paint7_linear_21_125)"/>
<path d="M3.49212 10.4933L3.28192 10.6888L3.55113 10.9653C3.69864 11.1202 3.93834 11.3562 4.08217 11.489L4.34769 11.7361L4.5247 11.5074C4.62058 11.3821 4.71646 11.2604 4.73121 11.2345C4.77915 11.1719 4.55051 10.9322 4.14855 10.6298C3.95678 10.4896 3.79452 10.3569 3.78346 10.3384C3.74658 10.2757 3.7097 10.2942 3.49212 10.4933ZM3.91253 10.5597C3.91253 10.6298 3.82402 10.6629 3.72077 10.6261C3.6212 10.5892 3.61751 10.5855 3.67282 10.5191C3.72445 10.4675 3.75027 10.4601 3.82402 10.4933C3.87196 10.5154 3.91253 10.5449 3.91253 10.5597Z" fill="black"/>
<path d="M3.49212 10.4933L3.28192 10.6888L3.55113 10.9653C3.69864 11.1202 3.93834 11.3562 4.08217 11.489L4.34769 11.7361L4.5247 11.5074C4.62058 11.3821 4.71646 11.2604 4.73121 11.2345C4.77915 11.1719 4.55051 10.9322 4.14855 10.6298C3.95678 10.4896 3.79452 10.3569 3.78346 10.3384C3.74658 10.2757 3.7097 10.2942 3.49212 10.4933ZM3.91253 10.5597C3.91253 10.6298 3.82402 10.6629 3.72077 10.6261C3.6212 10.5892 3.61751 10.5855 3.67282 10.5191C3.72445 10.4675 3.75027 10.4601 3.82402 10.4933C3.87196 10.5154 3.91253 10.5449 3.91253 10.5597Z" fill="url(#paint8_linear_21_125)"/>
<path d="M3.13812 11.0095C3.13812 11.0796 3.89411 11.8134 3.96787 11.8134C4.00475 11.8134 4.05638 11.8429 4.08219 11.8761C4.14119 11.961 4.18914 11.9167 4.13013 11.8245C4.108 11.7876 3.97893 11.6659 3.84617 11.5553C3.70973 11.4447 3.5069 11.264 3.39258 11.157C3.17869 10.9579 3.13812 10.9358 3.13812 11.0095Z" fill="url(#paint9_linear_21_125)"/>
<path d="M5.97767 11.4631L5.70477 11.7397L5.8486 11.8909C6.0588 12.1085 6.75579 12.6617 6.85167 12.6838C6.98074 12.717 7.02499 12.6875 7.21676 12.4367L7.39377 12.2081L7.20938 12.0569C7.10981 11.9721 6.85536 11.7434 6.63778 11.548L6.24687 11.1903L5.97767 11.4631Z" fill="url(#paint10_linear_21_125)"/>
<path d="M5.26226 12.1306C5.12581 12.2597 5.01886 12.3777 5.02624 12.3925C5.02993 12.4109 5.26963 12.6432 5.55359 12.9161L6.06619 13.4066L6.15469 13.3034C6.26533 13.1669 6.45709 12.8387 6.45709 12.7834C6.45709 12.7613 6.24689 12.5511 5.98506 12.3187L5.51671 11.8983L5.26226 12.1306Z" fill="url(#paint11_linear_21_125)"/>
<path d="M4.79761 12.6432C4.79761 12.6764 4.89349 12.787 5.00781 12.894C5.12213 13.0009 5.31758 13.178 5.43928 13.2923C5.56466 13.4029 5.70849 13.5246 5.76749 13.5578C5.92238 13.6574 5.89287 13.5578 5.70849 13.3623C5.50566 13.1484 4.87136 12.5879 4.8308 12.5879C4.81236 12.5879 4.79761 12.6137 4.79761 12.6432Z" fill="url(#paint12_linear_21_125)"/>
<defs>
<linearGradient id="paint0_linear_21_125" x1="15.1621" y1="3.20711" x2="13.0431" y2="1.08813" gradientUnits="userSpaceOnUse">
<stop stop-color="#040E1B"/>
<stop offset="1" stop-color="#07576E"/>
</linearGradient>
<linearGradient id="paint1_linear_21_125" x1="12.2194" y1="8.39433" x2="7.80121" y2="4.10196" gradientUnits="userSpaceOnUse">
<stop stop-color="#040E1B"/>
<stop offset="1" stop-color="#07576E"/>
</linearGradient>
<linearGradient id="paint2_linear_21_125" x1="11.4588" y1="6.70712" x2="9.43973" y2="4.68806" gradientUnits="userSpaceOnUse">
<stop stop-color="#0A98E8"/>
<stop offset="1" stop-color="#23FEF6"/>
</linearGradient>
<linearGradient id="paint3_linear_21_125" x1="11.5832" y1="6.81771" x2="9.27378" y2="4.50825" gradientUnits="userSpaceOnUse">
<stop stop-color="#07111B"/>
<stop offset="1" stop-color="#032134"/>
</linearGradient>
<linearGradient id="paint4_linear_21_125" x1="5.37396" y1="7.63368" x2="3.26742" y2="5.18027" gradientUnits="userSpaceOnUse">
<stop offset="0.555" stop-color="#001C2D"/>
<stop offset="0.825" stop-color="#20636D"/>
</linearGradient>
<linearGradient id="paint5_linear_21_125" x1="7.42066" y1="11.4644" x2="4.86694" y2="9.10241" gradientUnits="userSpaceOnUse">
<stop offset="0.399624" stop-color="#030F1B"/>
<stop offset="0.584616" stop-color="#326B88"/>
</linearGradient>
<linearGradient id="paint6_linear_21_125" x1="5.51584" y1="10.3472" x2="4.589" y2="9.4371" gradientUnits="userSpaceOnUse">
<stop stop-color="#040E1B"/>
<stop offset="1" stop-color="#07576E"/>
</linearGradient>
<linearGradient id="paint7_linear_21_125" x1="10.3411" y1="12.8138" x2="7.74984" y2="11.6087" gradientUnits="userSpaceOnUse">
<stop stop-color="#20636D"/>
<stop offset="0.445" stop-color="#001C2D"/>
</linearGradient>
<linearGradient id="paint8_linear_21_125" x1="4.87361" y1="11.1461" x2="4.03429" y2="10.2825" gradientUnits="userSpaceOnUse">
<stop stop-color="#040E1B"/>
<stop offset="1" stop-color="#07576E"/>
</linearGradient>
<linearGradient id="paint9_linear_21_125" x1="4.25234" y1="11.5291" x2="3.69577" y2="10.9262" gradientUnits="userSpaceOnUse">
<stop stop-color="#040E1B"/>
<stop offset="1" stop-color="#07576E"/>
</linearGradient>
<linearGradient id="paint10_linear_21_125" x1="7.55169" y1="12.074" x2="6.67494" y2="11.0795" gradientUnits="userSpaceOnUse">
<stop stop-color="#04222B"/>
<stop offset="1" stop-color="#020C19"/>
</linearGradient>
<linearGradient id="paint11_linear_21_125" x1="6.59091" y1="12.7842" x2="5.70585" y2="11.9355" gradientUnits="userSpaceOnUse">
<stop stop-color="#001226"/>
<stop offset="1" stop-color="#01161F"/>
</linearGradient>
<linearGradient id="paint12_linear_21_125" x1="5.9674" y1="13.1805" x2="5.37619" y2="12.5471" gradientUnits="userSpaceOnUse">
<stop stop-color="#040E1B"/>
<stop offset="1" stop-color="#07576E"/>
</linearGradient>
</defs>
</svg>
